<svg xmlns="http://www.w3.org/2000/svg" style="display:none">
  <symbol id="icon-sparkle" viewBox="0 0 24 24" fill="none">
    <path d="M12 2l1.2 4.2L17.4 7.4 13.2 8.6 12 12.8 10.8 8.6 6.6 7.4l4.2-1.2L12 2z" fill="currentColor" opacity=".9"/>
    <path d="M19 11l.7 2.5 2.5.7-2.5.7-.7 2.5-.7-2.5-2.5-.7 2.5-.7.7-2.5z" fill="currentColor" opacity=".55"/>
    <path d="M5 14l.5 1.8 1.8.5-1.8.5L5 18.8l-.5-1.8-1.8-.5 1.8-.5L5 14z" fill="currentColor" opacity=".7"/>
  </symbol>
  <symbol id="icon-send" viewBox="0 0 24 24" fill="none">
    <path d="M4 12l16-7-7 16-2.5-7.5L4 12z" stroke="currentColor" stroke-width="1.75" stroke-linejoin="round"/>
  </symbol>
  <symbol id="icon-close" viewBox="0 0 24 24" fill="none">
    <path d="M6 6l12 12M18 6L6 18" stroke="currentColor" stroke-width="1.75" stroke-linecap="round"/>
  </symbol>
  <symbol id="icon-bot" viewBox="0 0 24 24" fill="none">
    <rect x="4" y="8" width="16" height="11" rx="3" stroke="currentColor" stroke-width="1.5"/>
    <circle cx="9" cy="13" r="1.25" fill="currentColor"/>
    <circle cx="15" cy="13" r="1.25" fill="currentColor"/>
    <path d="M12 4v4" stroke="currentColor" stroke-width="1.5" stroke-linecap="round"/>
    <circle cx="12" cy="3" r="1.25" fill="currentColor"/>
  </symbol>
  <symbol id="icon-user" viewBox="0 0 24 24" fill="none">
    <circle cx="12" cy="8" r="3.5" stroke="currentColor" stroke-width="1.5"/>
    <path d="M5 20c0-3.866 3.134-7 7-7s7 3.134 7 7" stroke="currentColor" stroke-width="1.5" stroke-linecap="round"/>
  </symbol>
  <symbol id="icon-shield" viewBox="0 0 24 24" fill="none">
    <path d="M12 3l7 3v5c0 4.418-3.134 7.5-7 9-3.866-1.5-7-4.582-7-9V6l7-3z" stroke="currentColor" stroke-width="1.5" stroke-linejoin="round"/>
    <path d="M9 12l2 2 4-4" stroke="currentColor" stroke-width="1.5" stroke-linecap="round" stroke-linejoin="round"/>
  </symbol>
  <symbol id="icon-doc" viewBox="0 0 24 24" fill="none">
    <path d="M8 4h8l4 4v12H8V4z" stroke="currentColor" stroke-width="1.5" stroke-linejoin="round"/>
    <path d="M16 4v4h4M10 12h8M10 16h6" stroke="currentColor" stroke-width="1.5" stroke-linecap="round"/>
  </symbol>
</svg>
